<svg width="37" height="37" viewBox="0 0 37 37" fill="none" xmlns="http://www.w3.org/2000/svg">
<g clip-path="url(#clip0_107_14)">
<path d="M31.2191 0H5.78088C2.58819 0 0 2.58819 0 5.78088V31.2191C0 34.4118 2.58819 37 5.78088 37H31.2191C34.4118 37 37 34.4118 37 31.2191V5.78088C37 2.58819 34.4118 0 31.2191 0Z" fill="black"/>
<path fill-rule="evenodd" clip-rule="evenodd" d="M18.0627 19.8823C16.8351 20.771 15.2848 21.2076 13.4266 21.2076H12.6422L12.4069 21.1943V26.2078C12.4106 26.3114 12.3677 26.4106 12.2915 26.4801C12.2153 26.5423 12.1183 26.5741 12.0206 26.5704H9.54016C9.3522 26.583 9.19014 26.4409 9.17756 26.253C9.17682 26.2382 9.17682 26.2234 9.17756 26.2078V11.0793C9.17386 10.9882 9.20346 10.8987 9.26044 10.8269C9.32408 10.7551 9.41658 10.7144 9.51278 10.7167C10.5147 10.6856 11.9215 10.67 13.733 10.67C15.8191 10.67 17.3938 11.151 18.4142 12.1545C19.4273 13.1061 19.986 14.444 19.9497 15.833C19.9483 17.6031 19.3252 18.9632 18.0627 19.8816V19.8823ZM15.9382 13.9194L15.936 13.9172C15.438 13.4473 14.7128 13.1986 13.73 13.1986C13.087 13.1986 12.6496 13.2082 12.4062 13.2253V18.6287C12.6452 18.6465 13.03 18.6576 13.5658 18.6576C14.379 18.6946 15.1834 18.4696 15.8598 18.0168C16.417 17.5979 16.7159 16.9038 16.7159 15.8811C16.7618 15.1448 16.4769 14.427 15.9397 13.9216L15.9375 13.9179L15.9382 13.9194Z" fill="#43CC65"/>
<path d="M26.9568 12.4083C26.6911 12.8545 26.5697 13.3718 26.6082 13.8898V14.7682H28.3768C28.5648 14.7556 28.7268 14.8977 28.7394 15.0856C28.7402 15.1004 28.7402 15.1152 28.7394 15.1308V16.8653C28.7424 16.96 28.7106 17.0525 28.6491 17.1258C28.5855 17.1954 28.4989 17.2398 28.4049 17.2501L28.3909 17.2523H26.6082V26.1871C26.6223 26.3862 26.4721 26.5586 26.273 26.5726C26.256 26.5741 26.239 26.5741 26.2219 26.5726H23.74C23.5409 26.5867 23.3685 26.4365 23.3544 26.2374C23.353 26.2204 23.353 26.2034 23.3544 26.1864V17.2494H22.1949C22.0913 17.2523 21.9936 17.205 21.9307 17.1228C21.8781 17.0466 21.8515 16.9556 21.8559 16.8624V15.1278C21.8522 15.0368 21.8818 14.9472 21.9388 14.8755C22.0032 14.8022 22.0972 14.7622 22.1949 14.7652H23.3544V14.1207C23.3197 13.1779 23.5121 12.2403 23.9146 11.3878C24.2247 10.7226 24.7234 10.1631 25.3487 9.77908C26.0073 9.40612 26.7547 9.22038 27.511 9.24184C28.0061 9.2189 28.5004 9.29512 28.9659 9.4668C29.0502 9.4964 29.122 9.55486 29.1679 9.63108C29.2115 9.70878 29.2337 9.79684 29.2315 9.88564V11.783C29.2389 11.8918 29.199 11.9976 29.1213 12.0738C29.0273 12.1471 28.8993 12.1604 28.7927 12.1064C28.5263 12.0028 28.2421 11.9525 27.9558 11.9576C27.568 11.928 27.1913 12.0975 26.9568 12.4076V12.4083Z" fill="#43CC65"/>
</g>
<defs>
<clipPath id="clip0_107_14">
<rect width="37" height="37" fill="white"/>
</clipPath>
</defs>
</svg>
