<svg width="45" height="45" viewBox="0 0 45 45" fill="none" xmlns="http://www.w3.org/2000/svg">
<path d="M13.7888 20.8256V17.8163C13.7888 17.6381 13.7888 17.5669 14.0213 17.5669C16.0144 17.5669 17.6344 17.4488 18.4388 17.9231C19.2451 18.3956 19.2788 19.0481 19.2919 19.2431C19.3051 19.4381 19.2994 19.7175 18.9244 20.3981C18.5494 21.0788 16.8713 21.0919 15.6601 21.0919H14.0569C13.8601 21.0919 13.7888 21.0206 13.7888 20.8256ZM19.3126 23.9794C19.4983 24.2164 19.6308 24.4907 19.7012 24.7834C19.7717 25.0762 19.7783 25.3807 19.7207 25.6763C19.663 25.9718 19.5425 26.2516 19.3673 26.4965C19.1921 26.7414 18.9662 26.9457 18.7051 27.0956C18.3215 27.257 17.91 27.3418 17.4938 27.345H14.0382C13.8601 27.345 13.7888 27.345 13.7888 27.1144V23.5519C13.7888 23.3738 13.7888 23.3025 14.0213 23.3025H16.3182C17.7432 23.3025 18.6338 23.1788 19.3126 23.9794Z" fill="#FC7DB0"/>
<path d="M31.8544 22.3294C31.7588 22.1041 31.6139 21.9032 31.4301 21.7416C31.2464 21.5799 31.0287 21.4617 30.7931 21.3956C30.3222 21.267 29.8293 21.2397 29.3471 21.3157C28.8648 21.3916 28.4042 21.5691 27.9956 21.8363C27.5884 22.2477 27.3253 22.7798 27.2456 23.3531C27.2456 23.5537 27.2456 23.5912 27.4837 23.5912H31.9275C32.1469 23.5912 32.1469 23.5913 32.1281 23.3156C32.1071 22.9711 32.0151 22.6349 31.8544 22.3294ZM31.8544 22.3294C31.7588 22.1041 31.612 21.9032 31.4283 21.7416C31.2446 21.5799 31.0287 21.4617 30.7931 21.3956C30.3222 21.267 29.8293 21.2397 29.3471 21.3157C28.8648 21.3916 28.4042 21.5691 27.9956 21.8363C27.5884 22.2477 27.3235 22.7798 27.2437 23.3531C27.2437 23.5537 27.2437 23.5912 27.4819 23.5912H31.9275C32.1469 23.5912 32.1469 23.5913 32.1281 23.3156C32.1071 22.9711 32.0113 22.6349 31.8506 22.3294M33.9375 4.6875H12C10.0606 4.6875 8.20064 5.45792 6.82928 6.82928C5.45792 8.20064 4.6875 10.0606 4.6875 12V33.9375C4.6875 35.8769 5.45792 37.7369 6.82928 39.1082C8.20064 40.4796 10.0606 41.25 12 41.25H33.9375C35.8769 41.25 37.7369 40.4796 39.1082 39.1082C40.4796 37.7369 41.25 35.8769 41.25 33.9375V12C41.25 10.0606 40.4796 8.20064 39.1082 6.82928C37.7369 5.45792 35.8769 4.6875 33.9375 4.6875ZM26.7712 16.3313C26.7712 16.1869 26.7712 16.1306 26.9363 16.1306H32.8594V17.6681C32.8594 17.6681 32.865 17.7769 32.7675 17.7769H27.0281C26.7712 17.7769 26.7712 17.7769 26.7712 17.5219V16.3313ZM21.2869 29.7694C19.0369 30.9937 15.255 30.5006 10.7756 30.5006V15.345H17.9231C19.7513 15.345 21.9262 15.8025 22.5112 17.7394C22.815 18.5853 22.7965 19.5136 22.4593 20.3467C22.1221 21.1799 21.4898 21.8597 20.6831 22.2563C21.4267 22.5314 22.0758 23.0138 22.5537 23.6464C23.0317 24.2789 23.3184 25.0352 23.3799 25.8256C23.4415 26.616 23.2753 27.4075 22.901 28.1065C22.5268 28.8054 21.9601 29.3824 21.2681 29.7694H21.2869ZM34.9069 25.455H27.5944C27.3937 25.455 27.21 25.5637 27.2456 25.8206C27.465 26.8988 27.9581 28.0331 29.0756 28.1981C29.6657 28.3737 30.2976 28.3467 30.8705 28.1214C31.4435 27.8961 31.9245 27.4855 32.2369 26.955C32.2369 26.955 32.3288 26.8444 32.3831 26.8444H34.7606C34.7606 26.8444 34.9069 26.8444 34.8694 26.9719C34.6186 27.6818 34.2476 28.3434 33.7725 28.9275C33.1371 29.5345 32.3703 29.9868 31.5318 30.2495C30.6932 30.5121 29.8054 30.578 28.9372 30.442C28.0691 30.306 27.244 29.9717 26.5259 29.4652C25.8079 28.9587 25.2162 28.2935 24.7969 27.5213C24.539 27.0063 24.3781 26.4482 24.3225 25.875C23.9964 24.4342 24.2456 22.9231 25.0172 21.6634C25.7887 20.4036 27.0215 19.4949 28.4531 19.1306C32.6025 18.2344 35.235 21.0863 35.235 25.1081C35.2411 25.1551 35.2364 25.2029 35.2211 25.2478C35.2059 25.2927 35.1805 25.3335 35.147 25.367C35.1135 25.4005 35.0727 25.4259 35.0278 25.4411C34.9829 25.4564 34.9351 25.4611 34.8881 25.455H34.9069ZM30.8119 21.3956C30.3414 21.2651 29.8481 21.2382 29.3662 21.3169C28.8844 21.3919 28.4531 21.4837 28.0144 21.8363C27.5756 22.1869 27.3431 22.7794 27.2644 23.3531C27.2644 23.5537 27.2644 23.5912 27.5025 23.5912H31.9275C32.1469 23.5912 32.1469 23.5913 32.1281 23.3156C32.1071 22.9711 32.0151 22.6349 31.8544 22.3294C31.7588 22.1041 31.6139 21.9032 31.4301 21.7416C31.2464 21.5799 31.0287 21.4617 30.7931 21.3956H30.8119Z" fill="#FC7DB0"/>
</svg>
