<svg width="42" height="34" viewBox="0 0 42 34" fill="none" xmlns="http://www.w3.org/2000/svg">
<g clip-path="url(#clip0_49_34)">
<path d="M16.4767 18.8299C16.6295 16.1155 17.9634 13.7242 19.9762 12.0289C21.9498 10.3639 24.6063 9.34619 27.505 9.34619C30.4007 9.34619 33.0574 10.3639 35.0325 12.0289C37.0436 13.724 38.3777 16.1155 38.532 18.827C38.6845 21.6159 37.5594 24.2068 35.5857 26.1273C33.5732 28.0808 30.7104 29.3066 27.505 29.3066C24.2995 29.3066 21.4312 28.0808 19.42 26.1273C17.4448 24.2066 16.3225 21.6158 16.4767 18.8299Z" fill="white"/>
<path d="M21.8478 19.072C21.926 17.6793 22.6107 16.4522 23.6433 15.5824C24.656 14.7282 26.0191 14.2059 27.5065 14.2059C28.9922 14.2059 30.3554 14.7282 31.3688 15.5824C32.4008 16.4522 33.0852 17.6793 33.1643 19.0707C33.2427 20.5017 32.6656 21.8311 31.6527 22.8164C30.62 23.8188 29.1512 24.4478 27.5065 24.4478C25.8617 24.4478 24.3899 23.8188 23.358 22.8164C22.3446 21.8311 21.7687 20.5017 21.8478 19.072Z" fill="#265787"/>
<path d="M12.8643 21.9333C12.8741 22.4792 13.0489 23.5408 13.3112 24.3695C13.8623 26.1239 14.7971 27.7471 16.098 29.1774C17.4329 30.6477 19.0767 31.8287 20.9755 32.6671C22.9712 33.5477 25.1335 33.9964 27.3796 33.9928C29.622 33.9897 31.7845 33.5322 33.7801 32.6449C35.6788 31.7983 37.3211 30.6123 38.6539 29.1413C39.954 27.7049 40.8873 26.079 41.44 24.3246C41.7178 23.4381 41.8933 22.5384 41.9637 21.6356C42.0326 20.745 42.0035 19.8496 41.8771 18.9653C41.6297 17.2308 41.0273 15.6034 40.0998 14.1198C39.2516 12.7565 38.1583 11.5631 36.8581 10.5585L36.861 10.5563L23.741 0.518993C23.729 0.510166 23.7193 0.500685 23.7067 0.492512C22.846 -0.165911 21.3983 -0.163623 20.4517 0.496108C19.4945 1.16336 19.385 2.26689 20.2368 2.96274L20.2332 2.9665L25.7055 7.40023L9.02637 7.41789H9.00406C7.62544 7.41952 6.30031 8.32068 6.03781 9.45952C5.76826 10.6198 6.70472 11.5822 8.13814 11.5875L8.13584 11.5925L16.59 11.5762L1.50411 23.1135C1.48491 23.1275 1.46408 23.1422 1.44636 23.1563C0.0232791 24.242 -0.436752 26.0474 0.459521 27.1899C1.36925 28.3518 3.30354 28.3539 4.74139 27.1966L12.9747 20.483C12.9747 20.483 12.8546 21.3893 12.8643 21.9333ZM34.021 24.9681C32.3246 26.6902 29.9494 27.6665 27.3797 27.6718C24.8061 27.6762 22.4311 26.7085 20.7347 24.9895C19.9057 24.1518 19.2969 23.1878 18.9211 22.1611C18.5517 21.1508 18.4096 20.0719 18.5049 19.0008C18.5945 17.9445 18.9102 16.9371 19.4138 16.0254C19.9086 15.1295 20.5902 14.3197 21.4318 13.6348C23.0806 12.2961 25.1801 11.5711 27.3758 11.5682C29.5739 11.5652 31.6718 12.2835 33.3224 13.618C34.1624 14.2998 34.8432 15.1066 35.3381 16.0013C35.8483 16.9177 36.1592 17.9309 36.2507 18.9749C36.3446 20.0454 36.202 21.1234 35.8329 22.133C35.4565 23.1628 34.8498 24.1268 34.021 24.9681Z" fill="#EA7600"/>
</g>
<defs>
<clipPath id="clip0_49_34">
<rect width="42" height="34" fill="white"/>
</clipPath>
</defs>
</svg>
