<svg width="34" height="34" viewBox="0 0 34 34" fill="none" xmlns="http://www.w3.org/2000/svg">
<path d="M27.625 12.7479V14.8729H29.75V29.7479H14.875V27.6229H12.75V31.8729L31.875 31.875V12.7479H27.625Z" fill="#7E57C2"/>
<path d="M17 14.875H14.875V12.75H12.75V14.875C12.75 15.0801 12.75 15.6219 14.0824 15.9726C14.846 16.1077 15.5445 16.489 16.0713 17.0581C16.5981 17.6273 16.9242 18.3532 17 19.125H19.125V21.25H21.25V19.125C21.25 18.7127 20.6529 18.2208 19.9176 18.0264C17.3783 17.3612 17 15.7675 17 14.875ZM13.5426 18.0264C11.0033 17.3612 10.625 15.7675 10.625 14.875H8.5V12.75H6.375V21.25H8.5V19.125H12.75V21.25H14.875V19.125C14.875 18.7127 14.2779 18.2208 13.5426 18.0264Z" fill="#7E57C2"/>
<path d="M2.125 2.125V25.4979H25.5V2.125H2.125ZM23.375 14.875H21.25V12.75H19.125V14.875C19.125 15.0801 19.125 15.6219 20.4574 15.9726C21.221 16.1077 21.9195 16.489 22.4463 17.0581C22.9731 17.6273 23.2992 18.3532 23.375 19.125V21.25C23.375 21.8136 23.1511 22.3541 22.7526 22.7526C22.3541 23.1511 21.8136 23.375 21.25 23.375H19.125C18.5614 23.375 18.0209 23.1511 17.6224 22.7526C17.2239 22.3541 17 21.8136 17 21.25C17 21.8136 16.7761 22.3541 16.3776 22.7526C15.9791 23.1511 15.4386 23.375 14.875 23.375H12.75C12.1864 23.375 11.6459 23.1511 11.2474 22.7526C10.8489 22.3541 10.625 21.8136 10.625 21.25C10.625 21.8136 10.4011 22.3541 10.0026 22.7526C9.60409 23.1511 9.06359 23.375 8.5 23.375H6.375C5.81141 23.375 5.27091 23.1511 4.8724 22.7526C4.47388 22.3541 4.25 21.8136 4.25 21.25V12.75C4.25 12.1864 4.47388 11.6459 4.8724 11.2474C5.27091 10.8489 5.81141 10.625 6.375 10.625H8.5C9.06359 10.625 9.60409 10.8489 10.0026 11.2474C10.4011 11.6459 10.625 12.1864 10.625 12.75C10.625 12.1864 10.8489 11.6459 11.2474 11.2474C11.6459 10.8489 12.1864 10.625 12.75 10.625H14.875C15.4386 10.625 15.9791 10.8489 16.3776 11.2474C16.7761 11.6459 17 12.1864 17 12.75C17 12.1864 17.2239 11.6459 17.6224 11.2474C18.0209 10.8489 18.5614 10.625 19.125 10.625H21.25C21.8136 10.625 22.3541 10.8489 22.7526 11.2474C23.1511 11.6459 23.375 12.1864 23.375 12.75V14.875Z" fill="#7E57C2"/>
</svg>
