<svg width="36" height="36" viewBox="0 0 36 36" fill="none" xmlns="http://www.w3.org/2000/svg">
<path d="M13.5 4.5H18V13.5H13.5C12.3065 13.5 11.1619 13.0259 10.318 12.182C9.47411 11.3381 9 10.1935 9 9C9 7.80653 9.47411 6.66193 10.318 5.81802C11.1619 4.97411 12.3065 4.5 13.5 4.5Z" fill="#F4511E"/>
<path d="M22.5 13.5H18V4.5H22.5C23.6935 4.5 24.8381 4.97411 25.682 5.81802C26.5259 6.66193 27 7.80653 27 9C27 10.1935 26.5259 11.3381 25.682 12.182C24.8381 13.0259 23.6935 13.5 22.5 13.5Z" fill="#FF8A65"/>
<path d="M18 18C18 20.4853 20.0147 22.5 22.5 22.5C24.9853 22.5 27 20.4853 27 18C27 15.5147 24.9853 13.5 22.5 13.5C20.0147 13.5 18 15.5147 18 18Z" fill="#29B6F6"/>
<path d="M13.5 13.5H18V22.5H13.5C12.3065 22.5 11.1619 22.0259 10.318 21.182C9.47411 20.3381 9 19.1935 9 18C9 16.8065 9.47411 15.6619 10.318 14.818C11.1619 13.9741 12.3065 13.5 13.5 13.5Z" fill="#7C4DFF"/>
<path d="M13.5 22.5H18V27C18 28.1935 17.5259 29.3381 16.682 30.182C15.8381 31.0259 14.6935 31.5 13.5 31.5C12.3065 31.5 11.1619 31.0259 10.318 30.182C9.47411 29.3381 9 28.1935 9 27C9 25.8065 9.47411 24.6619 10.318 23.818C11.1619 22.9741 12.3065 22.5 13.5 22.5Z" fill="#00E676"/>
</svg>
