<svg width="48" height="48" viewBox="0 0 48 48" fill="none" xmlns="http://www.w3.org/2000/svg">
<path d="M24.002 4C12.952 4 4.00196 12.95 4.00196 24C3.99834 28.1986 5.31747 32.2916 7.77207 35.698C10.2267 39.1043 13.692 41.6509 17.676 42.976C18.676 43.15 19.052 42.55 19.052 42.024C19.052 41.55 19.026 39.976 19.026 38.3C14.002 39.226 12.702 37.076 12.302 35.95C12.076 35.374 11.102 33.6 10.252 33.124C9.55196 32.75 8.55196 31.824 10.226 31.8C11.802 31.774 12.926 33.25 13.302 33.85C15.102 36.874 17.976 36.024 19.126 35.5C19.302 34.2 19.826 33.326 20.402 32.826C15.952 32.326 11.302 30.6 11.302 22.95C11.302 20.774 12.076 18.976 13.352 17.576C13.152 17.076 12.452 15.026 13.552 12.276C13.552 12.276 15.226 11.75 19.052 14.324C20.6803 13.8733 22.3624 13.6465 24.052 13.65C25.752 13.65 27.452 13.874 29.052 14.324C32.878 11.724 34.552 12.276 34.552 12.276C35.652 15.026 34.952 17.076 34.752 17.576C36.026 18.976 36.802 20.75 36.802 22.95C36.802 30.626 32.128 32.326 27.678 32.826C28.402 33.45 29.028 34.65 29.028 36.526C29.028 39.2 29.002 41.35 29.002 42.026C29.002 42.55 29.378 43.174 30.378 42.974C34.347 41.6322 37.7957 39.0802 40.2391 35.6768C42.6825 32.2733 43.9978 28.1897 44 24C44 12.95 35.05 4 24 4" fill="black"/>
</svg>
