<svg width="34" height="34" viewBox="0 0 34 34" fill="none" xmlns="http://www.w3.org/2000/svg">
<g clip-path="url(#clip0_49_27)">
<path d="M6.02969 0.425049H27.9969C31.3172 0.425049 34.0266 3.10786 34.0266 6.45474V27.5719C34.0266 30.8922 31.3438 33.6016 27.9969 33.6016H6.02969C2.68281 33.5751 0 30.8922 0 27.5454V6.45474C0 3.10786 2.68281 0.425049 6.02969 0.425049Z" fill="#330000"/>
<path d="M16.4421 20.2672H11.1561L10.0936 23.5875C10.0671 23.7203 9.96083 23.8 9.82802 23.7735H7.17177C7.01239 23.7735 6.98583 23.6938 7.01239 23.5078L11.5811 10.386C11.6343 10.2531 11.6608 10.0938 11.714 9.90784C11.7671 9.61565 11.7936 9.2969 11.7936 8.97815C11.7671 8.89846 11.8468 8.84534 11.8999 8.81877H15.5655C15.6718 8.81877 15.7249 8.8719 15.7515 8.92502L20.9311 23.5078C20.9843 23.6672 20.9311 23.7469 20.7983 23.7469H17.8233C17.7171 23.7735 17.6374 23.6938 17.5843 23.5875L16.4421 20.2672ZM11.9796 17.3719H15.5655C15.4858 17.0797 15.3796 16.7078 15.2468 16.3625C15.114 15.9906 14.9811 15.5656 14.8749 15.1406C14.7421 14.6891 14.6093 14.2641 14.4765 13.8391C14.3436 13.3875 14.2108 12.9891 14.1046 12.5907C13.9983 12.1922 13.8921 11.8203 13.7858 11.475H13.7593C13.6265 12.086 13.4671 12.6969 13.2811 13.3078C13.0686 13.9985 12.8561 14.6891 12.6171 15.4063C12.4046 16.1235 12.1921 16.7875 11.9796 17.3719ZM24.0921 11.3422C23.614 11.3688 23.1624 11.1828 22.8436 10.8375C22.5249 10.4922 22.339 10.0141 22.3655 9.53596C22.339 9.05784 22.5249 8.60627 22.8702 8.28752C23.2155 7.96877 23.6671 7.78284 24.1186 7.78284C24.6765 7.78284 25.1015 7.94221 25.4202 8.28752C25.739 8.63284 25.8983 9.0844 25.8983 9.53596C25.9249 10.0141 25.739 10.4922 25.3936 10.8375C25.0483 11.1828 24.5702 11.3688 24.0921 11.3422ZM22.4983 23.6406V12.7235C22.4983 12.5907 22.5515 12.5375 22.6843 12.5375H25.4999C25.6327 12.5375 25.6858 12.6172 25.6858 12.7235V23.6406C25.6858 23.8 25.6327 23.8797 25.4999 23.8797H22.7108C22.578 23.8531 22.4983 23.7735 22.4983 23.6406Z" fill="#FF9A00"/>
</g>
<defs>
<clipPath id="clip0_49_27">
<rect width="34" height="34" fill="white"/>
</clipPath>
</defs>
</svg>
