<svg width="34" height="34" viewBox="0 0 34 34" fill="none" xmlns="http://www.w3.org/2000/svg">
<g clip-path="url(#clip0_50_64)">
<path d="M28.3555 0H5.64453C2.52714 0 0 2.58779 0 5.78V28.1656C0 31.3578 2.52714 33.9456 5.64453 33.9456H28.3555C31.4729 33.9456 34 31.3578 34 28.1656V5.78C34 2.58779 31.4729 0 28.3555 0Z" fill="#001E36"/>
<path d="M17.8558 23.9916H8.86928C8.71707 23.9916 8.64106 23.9059 8.64124 23.7346V8.90389C8.63724 8.87534 8.6398 8.84623 8.64869 8.81886C8.65759 8.7915 8.67259 8.76663 8.6925 8.74623C8.71241 8.72583 8.73669 8.71045 8.7634 8.70132C8.79012 8.69219 8.81855 8.68956 8.84643 8.69363H11.6291C11.6508 8.6905 11.6729 8.69258 11.6937 8.69969C11.7145 8.70681 11.7333 8.71877 11.7488 8.73464C11.7643 8.75051 11.776 8.76984 11.7829 8.79112C11.7898 8.8124 11.7918 8.83503 11.7888 8.85724V21.049H18.3347C18.4715 21.049 18.5247 21.119 18.4945 21.2591L18.0838 23.7815C18.0828 23.8159 18.0741 23.8496 18.0583 23.88C18.0424 23.9104 18.0199 23.9366 17.9926 23.9566C17.9503 23.9791 17.9034 23.9911 17.8558 23.9917M20.1136 12.3839H22.5997C22.7384 12.3852 22.8595 12.4804 22.8961 12.6175C22.9504 12.7198 22.989 12.8301 23.0104 12.9444C23.0421 13.0949 23.0648 13.2467 23.0786 13.3999C23.0937 13.5634 23.1013 13.7386 23.1015 13.9254C23.5278 13.417 24.0419 12.9934 24.6182 12.6758C25.2655 12.3174 25.9923 12.1364 26.728 12.1503C26.7559 12.1463 26.7844 12.1489 26.8111 12.158C26.8378 12.1672 26.8621 12.1825 26.882 12.2029C26.9019 12.2233 26.9169 12.2482 26.9258 12.2756C26.9347 12.3029 26.9372 12.332 26.9332 12.3606V15.1867C26.9332 15.2958 26.8572 15.3502 26.7052 15.3502C25.7864 15.2919 24.8674 15.4601 24.0252 15.8406C23.739 15.9675 23.4796 16.1499 23.2611 16.3778V23.7816C23.2611 23.9217 23.2003 23.9917 23.0786 23.9917H20.3188C20.2878 23.9963 20.2562 23.9934 20.2265 23.9833C20.1968 23.9731 20.1698 23.9561 20.1477 23.9334C20.1256 23.9107 20.1089 23.8831 20.099 23.8527C20.0891 23.8223 20.0863 23.7899 20.0907 23.7582V15.7237C20.0907 15.5282 20.0895 15.3261 20.087 15.1176L20.0824 14.8002C20.0815 14.7464 20.0805 14.6923 20.0793 14.6378C20.0735 14.3538 20.0656 14.0699 20.0557 13.786L20.045 13.505C20.035 13.1842 20.0045 12.8643 19.9539 12.5475C19.9486 12.5263 19.9484 12.5041 19.9533 12.4828C19.9582 12.4616 19.9682 12.4418 19.9822 12.4254C19.9963 12.4089 20.0141 12.3963 20.0341 12.3884C20.054 12.3806 20.0755 12.3779 20.0967 12.3806L20.1136 12.3839Z" fill="#31A8FF"/>
</g>
<defs>
<clipPath id="clip0_50_64">
<rect width="34" height="34" fill="white"/>
</clipPath>
</defs>
</svg>
