<svg width="42" height="42" viewBox="0 0 42 42" fill="none" xmlns="http://www.w3.org/2000/svg">
<path fill-rule="evenodd" clip-rule="evenodd" d="M7.875 2.625C6.48261 2.625 5.14726 3.17812 4.16269 4.16269C3.17812 5.14726 2.625 6.48261 2.625 7.875V34.125C2.625 35.5174 3.17812 36.8527 4.16269 37.8373C5.14726 38.8219 6.48261 39.375 7.875 39.375H34.125C35.5174 39.375 36.8527 38.8219 37.8373 37.8373C38.8219 36.8527 39.375 35.5174 39.375 34.125V7.875C39.375 6.48261 38.8219 5.14726 37.8373 4.16269C36.8527 3.17812 35.5174 2.625 34.125 2.625H7.875ZM10.7678 13.9046C11.5997 13.9046 12.3976 13.5741 12.9859 12.9859C13.5741 12.3976 13.9046 11.5997 13.9046 10.7678C13.9046 9.9358 13.5741 9.13792 12.9859 8.54964C12.3976 7.96137 11.5997 7.63088 10.7678 7.63088C9.9358 7.63088 9.13792 7.96137 8.54964 8.54964C7.96137 9.13792 7.63088 9.9358 7.63088 10.7678C7.63088 11.5997 7.96137 12.3976 8.54964 12.9859C9.13792 13.5741 9.9358 13.9046 10.7678 13.9046ZM13.3928 33.6341V16.3643H8.14275V33.6341H13.3928ZM16.8787 16.3643H22.1287V18.6769C22.9031 17.4641 24.6041 15.8314 27.7673 15.8314C31.542 15.8314 33.5921 18.333 33.5921 23.0921C33.5921 23.3205 33.6131 24.3626 33.6131 24.3626V33.6315H28.3631V24.3652C28.3631 23.0921 28.0954 20.5905 25.2656 20.5905C22.4333 20.5905 22.1944 23.7353 22.1287 25.7933V33.6315H16.8787V16.3643Z" fill="#FC7DB0"/>
</svg>
