<?xml version="1.0" encoding="UTF-8"?>
<svg id="uuid-ad39c34f-b39a-4b3e-9f0f-661286478ab7" data-name="Capa 2" xmlns="http://www.w3.org/2000/svg" viewBox="0 0 3559.3 2837.04">
  <defs>
    <style>
      .uuid-f02d47fd-0af9-4f1e-99e3-af247667c114 {
        fill: #fff;
      }

      .uuid-432e17b5-469f-4d9c-bdcb-7c0571771e91 {
        fill: #b3b3b3;
      }

      .uuid-057500b2-632a-43d1-a6a5-071a5a242fb3 {
        stroke: #000;
        stroke-miterlimit: 10;
        stroke-width: .57px;
      }

      .uuid-487bed12-d14c-4290-8530-19017a8ae15e {
        fill: #d9d9d9;
      }
    </style>
  </defs>
  <rect class="uuid-057500b2-632a-43d1-a6a5-071a5a242fb3" x="1868.98" y="1358.54" width="15.72" height="15.23"/>
  <rect class="uuid-057500b2-632a-43d1-a6a5-071a5a242fb3" x="1853.76" y="1358.54" width="15.23" height="15.23"/>
  <rect class="uuid-057500b2-632a-43d1-a6a5-071a5a242fb3" x="1868.98" y="1343.31" width="15.23" height="15.23"/>
  <rect class="uuid-057500b2-632a-43d1-a6a5-071a5a242fb3" x="1853.76" y="1343.31" width="15.23" height="15.23"/>
  <rect class="uuid-057500b2-632a-43d1-a6a5-071a5a242fb3" x="1868.98" y="1328.09" width="15.23" height="15.23"/>
  <rect class="uuid-057500b2-632a-43d1-a6a5-071a5a242fb3" x="1853.76" y="1328.09" width="15.23" height="15.23"/>
  <rect class="uuid-057500b2-632a-43d1-a6a5-071a5a242fb3" x="1838.53" y="1328.09" width="15.23" height="14.68"/>
  <rect class="uuid-487bed12-d14c-4290-8530-19017a8ae15e" x="1838.73" y="1343.09" width="15.03" height="15.23"/>
  <rect class="uuid-487bed12-d14c-4290-8530-19017a8ae15e" x="1838.92" y="1358.09" width="14.84" height="15.23"/>
  <rect class="uuid-487bed12-d14c-4290-8530-19017a8ae15e" x="1838.92" y="1373.09" width="14.84" height="15.34"/>
  <rect class="uuid-057500b2-632a-43d1-a6a5-071a5a242fb3" x="1868.98" y="1312.86" width="15.23" height="15.23"/>
  <rect class="uuid-057500b2-632a-43d1-a6a5-071a5a242fb3" x="1853.76" y="1312.86" width="15.23" height="15.23"/>
  <rect class="uuid-057500b2-632a-43d1-a6a5-071a5a242fb3" x="1838.53" y="1312.86" width="15.23" height="15.23"/>
  <rect class="uuid-057500b2-632a-43d1-a6a5-071a5a242fb3" x="1868.98" y="1297.63" width="15.23" height="15.23"/>
  <rect class="uuid-057500b2-632a-43d1-a6a5-071a5a242fb3" x="1853.76" y="1297.63" width="15.23" height="15.23"/>
  <rect class="uuid-057500b2-632a-43d1-a6a5-071a5a242fb3" x="1838.53" y="1297.63" width="15.23" height="15.23"/>
  <rect class="uuid-057500b2-632a-43d1-a6a5-071a5a242fb3" x="1868.98" y="1282.41" width="15.23" height="15.23"/>
  <rect class="uuid-057500b2-632a-43d1-a6a5-071a5a242fb3" x="1853.76" y="1282.41" width="15.23" height="15.23"/>
  <rect class="uuid-057500b2-632a-43d1-a6a5-071a5a242fb3" x="1838.53" y="1282.41" width="15.23" height="15.23"/>
  <rect class="uuid-057500b2-632a-43d1-a6a5-071a5a242fb3" x="1838.53" y="1267.41" width="15.23" height="15.23"/>
  <rect class="uuid-057500b2-632a-43d1-a6a5-071a5a242fb3" x="1868.98" y="1267.18" width="15.23" height="15.23"/>
  <rect class="uuid-057500b2-632a-43d1-a6a5-071a5a242fb3" x="1853.76" y="1267.18" width="15.23" height="15.23"/>
  <rect class="uuid-057500b2-632a-43d1-a6a5-071a5a242fb3" x="1853.76" y="1252.18" width="15.23" height="15.23"/>
  <rect class="uuid-057500b2-632a-43d1-a6a5-071a5a242fb3" x="1868.98" y="1251.95" width="15.23" height="15.23"/>
  <rect class="uuid-057500b2-632a-43d1-a6a5-071a5a242fb3" x="1868.98" y="1237.95" width="15.23" height="15.23"/>
  <rect class="uuid-487bed12-d14c-4290-8530-19017a8ae15e" x="2036.58" y="1358.54" width="15.23" height="16.36"/>
  <rect class="uuid-057500b2-632a-43d1-a6a5-071a5a242fb3" x="2021.36" y="1358.54" width="15.23" height="15.23"/>
  <rect class="uuid-057500b2-632a-43d1-a6a5-071a5a242fb3" x="2006.13" y="1358.54" width="15.23" height="15.23"/>
  <rect class="uuid-f02d47fd-0af9-4f1e-99e3-af247667c114" x="1990.9" y="1358.54" width="15.23" height="15.56"/>
  <rect class="uuid-487bed12-d14c-4290-8530-19017a8ae15e" x="1975.68" y="1358.54" width="15.23" height="15.56"/>
  <rect class="uuid-487bed12-d14c-4290-8530-19017a8ae15e" x="1945.45" y="1358.54" width="15.23" height="15.56"/>
  <rect class="uuid-057500b2-632a-43d1-a6a5-071a5a242fb3" x="1930.22" y="1358.54" width="15.23" height="15.6"/>
  <rect class="uuid-057500b2-632a-43d1-a6a5-071a5a242fb3" x="1915" y="1358.54" width="15.23" height="15.23"/>
  <rect class="uuid-f02d47fd-0af9-4f1e-99e3-af247667c114" x="1899.77" y="1358.54" width="15.23" height="15.23"/>
  <rect class="uuid-487bed12-d14c-4290-8530-19017a8ae15e" x="1884.57" y="1358.54" width="15.2" height="15.56"/>
  <rect class="uuid-487bed12-d14c-4290-8530-19017a8ae15e" x="2036.58" y="1343.31" width="15.23" height="15.23"/>
  <rect class="uuid-057500b2-632a-43d1-a6a5-071a5a242fb3" x="2021.36" y="1343.31" width="15.23" height="15.23"/>
  <rect class="uuid-057500b2-632a-43d1-a6a5-071a5a242fb3" x="2006.13" y="1343.31" width="15.23" height="15.23"/>
  <rect class="uuid-057500b2-632a-43d1-a6a5-071a5a242fb3" x="1990.9" y="1343.31" width="15.23" height="15.23"/>
  <rect class="uuid-487bed12-d14c-4290-8530-19017a8ae15e" x="1975.68" y="1343.31" width="15.23" height="15.23"/>
  <rect class="uuid-487bed12-d14c-4290-8530-19017a8ae15e" x="1945.45" y="1343.31" width="15.23" height="15.23"/>
  <rect class="uuid-057500b2-632a-43d1-a6a5-071a5a242fb3" x="1930.22" y="1343.31" width="15.23" height="15.23"/>
  <rect class="uuid-057500b2-632a-43d1-a6a5-071a5a242fb3" x="1915" y="1343.31" width="15.23" height="15.23"/>
  <rect class="uuid-057500b2-632a-43d1-a6a5-071a5a242fb3" x="1899.77" y="1343.31" width="15.23" height="15.23"/>
  <rect class="uuid-487bed12-d14c-4290-8530-19017a8ae15e" x="1884.54" y="1343.31" width="15.23" height="15.23"/>
  <rect class="uuid-487bed12-d14c-4290-8530-19017a8ae15e" x="2036.58" y="1328.09" width="15.23" height="15.23"/>
  <rect class="uuid-487bed12-d14c-4290-8530-19017a8ae15e" x="2021.36" y="1328.09" width="15.23" height="15.23"/>
  <rect class="uuid-487bed12-d14c-4290-8530-19017a8ae15e" x="2006.13" y="1328.09" width="15.23" height="15.23"/>
  <rect class="uuid-487bed12-d14c-4290-8530-19017a8ae15e" x="1990.9" y="1328.09" width="15.23" height="15.23"/>
  <rect class="uuid-487bed12-d14c-4290-8530-19017a8ae15e" x="1975.68" y="1328.09" width="15.23" height="15.23"/>
  <rect class="uuid-487bed12-d14c-4290-8530-19017a8ae15e" x="1945.45" y="1328.09" width="15.23" height="15.23"/>
  <rect class="uuid-487bed12-d14c-4290-8530-19017a8ae15e" x="1930.22" y="1328.09" width="15.23" height="15.23"/>
  <rect class="uuid-487bed12-d14c-4290-8530-19017a8ae15e" x="1915" y="1328.09" width="15.23" height="15.23"/>
  <rect class="uuid-487bed12-d14c-4290-8530-19017a8ae15e" x="1899.77" y="1328.09" width="15.23" height="15.23"/>
  <rect class="uuid-487bed12-d14c-4290-8530-19017a8ae15e" x="1884.54" y="1328.09" width="15.23" height="15.23"/>
  <rect class="uuid-057500b2-632a-43d1-a6a5-071a5a242fb3" x="2036.58" y="1312.86" width="15.23" height="15.23"/>
  <rect class="uuid-487bed12-d14c-4290-8530-19017a8ae15e" x="2021.36" y="1312.86" width="15.23" height="15.23"/>
  <rect class="uuid-487bed12-d14c-4290-8530-19017a8ae15e" x="2006.13" y="1312.86" width="15.23" height="15.23"/>
  <rect class="uuid-057500b2-632a-43d1-a6a5-071a5a242fb3" x="1990.9" y="1312.86" width="15.23" height="15.23"/>
  <rect class="uuid-487bed12-d14c-4290-8530-19017a8ae15e" x="1975.68" y="1312.86" width="15.23" height="15.23"/>
  <rect class="uuid-487bed12-d14c-4290-8530-19017a8ae15e" x="1945.45" y="1312.86" width="15.23" height="15.23"/>
  <rect class="uuid-057500b2-632a-43d1-a6a5-071a5a242fb3" x="1930.22" y="1312.86" width="15.23" height="15.23"/>
  <rect class="uuid-487bed12-d14c-4290-8530-19017a8ae15e" x="1915" y="1312.86" width="15.23" height="15.23"/>
  <rect class="uuid-487bed12-d14c-4290-8530-19017a8ae15e" x="1899.77" y="1312.86" width="15.23" height="15.23"/>
  <rect class="uuid-057500b2-632a-43d1-a6a5-071a5a242fb3" x="1884.54" y="1312.86" width="15.23" height="15.23"/>
  <rect class="uuid-487bed12-d14c-4290-8530-19017a8ae15e" x="2036.58" y="1297.63" width="15.23" height="15.23"/>
  <rect class="uuid-057500b2-632a-43d1-a6a5-071a5a242fb3" x="2021.36" y="1297.63" width="15.23" height="15.23"/>
  <rect class="uuid-057500b2-632a-43d1-a6a5-071a5a242fb3" x="2006.13" y="1297.63" width="15.23" height="15.23"/>
  <rect class="uuid-487bed12-d14c-4290-8530-19017a8ae15e" x="1990.9" y="1297.63" width="15.23" height="15.23"/>
  <rect class="uuid-487bed12-d14c-4290-8530-19017a8ae15e" x="1975.68" y="1297.63" width="15.23" height="15.23"/>
  <rect class="uuid-487bed12-d14c-4290-8530-19017a8ae15e" x="1945.45" y="1297.63" width="15.23" height="15.23"/>
  <rect class="uuid-487bed12-d14c-4290-8530-19017a8ae15e" x="1930.22" y="1297.63" width="15.23" height="15.23"/>
  <rect class="uuid-057500b2-632a-43d1-a6a5-071a5a242fb3" x="1915" y="1297.63" width="15.23" height="15.23"/>
  <rect class="uuid-057500b2-632a-43d1-a6a5-071a5a242fb3" x="1899.77" y="1297.63" width="15.23" height="15.23"/>
  <rect class="uuid-057500b2-632a-43d1-a6a5-071a5a242fb3" x="1884.54" y="1297.63" width="15.23" height="15.23"/>
  <rect class="uuid-057500b2-632a-43d1-a6a5-071a5a242fb3" x="2036.58" y="1282.41" width="15.23" height="15.23"/>
  <rect class="uuid-487bed12-d14c-4290-8530-19017a8ae15e" x="2021.36" y="1282.41" width="15.23" height="15.23"/>
  <rect class="uuid-487bed12-d14c-4290-8530-19017a8ae15e" x="2006.13" y="1282.41" width="15.23" height="15.23"/>
  <rect class="uuid-487bed12-d14c-4290-8530-19017a8ae15e" x="1990.9" y="1282.41" width="15.23" height="15.23"/>
  <rect class="uuid-487bed12-d14c-4290-8530-19017a8ae15e" x="1975.68" y="1282.41" width="15.23" height="15.23"/>
  <rect class="uuid-487bed12-d14c-4290-8530-19017a8ae15e" x="1945.45" y="1282.41" width="15.23" height="15.23"/>
  <rect class="uuid-487bed12-d14c-4290-8530-19017a8ae15e" x="1930.22" y="1282.41" width="15.23" height="15.23"/>
  <rect class="uuid-487bed12-d14c-4290-8530-19017a8ae15e" x="1915" y="1282.41" width="15.23" height="15.23"/>
  <rect class="uuid-487bed12-d14c-4290-8530-19017a8ae15e" x="1899.77" y="1282.41" width="15.23" height="15.23"/>
  <rect class="uuid-057500b2-632a-43d1-a6a5-071a5a242fb3" x="1884.54" y="1282.41" width="15.23" height="15.23"/>
  <rect class="uuid-057500b2-632a-43d1-a6a5-071a5a242fb3" x="2036.58" y="1267.18" width="15.23" height="15.23"/>
  <rect class="uuid-057500b2-632a-43d1-a6a5-071a5a242fb3" x="2021.36" y="1267.18" width="15.23" height="15.23"/>
  <rect class="uuid-057500b2-632a-43d1-a6a5-071a5a242fb3" x="2006.13" y="1267.18" width="15.23" height="15.23"/>
  <rect class="uuid-057500b2-632a-43d1-a6a5-071a5a242fb3" x="1990.9" y="1267.18" width="15.23" height="15.23"/>
  <rect class="uuid-057500b2-632a-43d1-a6a5-071a5a242fb3" x="1975.68" y="1267.18" width="15.23" height="15.23"/>
  <rect class="uuid-057500b2-632a-43d1-a6a5-071a5a242fb3" x="1945.45" y="1267.18" width="15.23" height="15.23"/>
  <rect class="uuid-057500b2-632a-43d1-a6a5-071a5a242fb3" x="1930.22" y="1267.18" width="15.23" height="15.23"/>
  <rect class="uuid-057500b2-632a-43d1-a6a5-071a5a242fb3" x="1915" y="1267.18" width="15.23" height="15.23"/>
  <rect class="uuid-057500b2-632a-43d1-a6a5-071a5a242fb3" x="1899.77" y="1267.18" width="15.23" height="15.23"/>
  <rect class="uuid-057500b2-632a-43d1-a6a5-071a5a242fb3" x="1884.54" y="1267.18" width="15.23" height="15.23"/>
  <rect class="uuid-057500b2-632a-43d1-a6a5-071a5a242fb3" x="2036.58" y="1251.95" width="15.23" height="15.23"/>
  <rect class="uuid-057500b2-632a-43d1-a6a5-071a5a242fb3" x="2021.36" y="1251.95" width="15.23" height="15.23"/>
  <rect class="uuid-057500b2-632a-43d1-a6a5-071a5a242fb3" x="2006.13" y="1251.95" width="15.23" height="15.23"/>
  <rect class="uuid-057500b2-632a-43d1-a6a5-071a5a242fb3" x="1990.9" y="1251.95" width="15.23" height="15.23"/>
  <rect class="uuid-057500b2-632a-43d1-a6a5-071a5a242fb3" x="1975.68" y="1251.95" width="15.23" height="15.23"/>
  <rect class="uuid-057500b2-632a-43d1-a6a5-071a5a242fb3" x="1945.45" y="1251.95" width="15.23" height="15.23"/>
  <rect class="uuid-057500b2-632a-43d1-a6a5-071a5a242fb3" x="1930.22" y="1251.95" width="15.23" height="15.23"/>
  <rect class="uuid-057500b2-632a-43d1-a6a5-071a5a242fb3" x="1915" y="1251.95" width="15.23" height="15.23"/>
  <rect class="uuid-057500b2-632a-43d1-a6a5-071a5a242fb3" x="1899.77" y="1251.95" width="15.23" height="15.23"/>
  <rect class="uuid-057500b2-632a-43d1-a6a5-071a5a242fb3" x="1884.54" y="1251.95" width="15.23" height="15.23"/>
  <rect class="uuid-057500b2-632a-43d1-a6a5-071a5a242fb3" x="2036.58" y="1236.73" width="15.23" height="15.23"/>
  <rect class="uuid-057500b2-632a-43d1-a6a5-071a5a242fb3" x="2036.58" y="1221.73" width="15.23" height="15.23"/>
  <rect class="uuid-057500b2-632a-43d1-a6a5-071a5a242fb3" x="2021.36" y="1236.73" width="15.23" height="15.23"/>
  <rect class="uuid-057500b2-632a-43d1-a6a5-071a5a242fb3" x="2006.13" y="1236.73" width="15.23" height="15.23"/>
  <rect class="uuid-057500b2-632a-43d1-a6a5-071a5a242fb3" x="1990.9" y="1236.73" width="15.23" height="15.23"/>
  <rect class="uuid-057500b2-632a-43d1-a6a5-071a5a242fb3" x="1975.68" y="1236.73" width="15.23" height="15.23"/>
  <rect class="uuid-057500b2-632a-43d1-a6a5-071a5a242fb3" x="1945.45" y="1236.73" width="15.23" height="15.23"/>
  <rect class="uuid-057500b2-632a-43d1-a6a5-071a5a242fb3" x="1930.22" y="1236.73" width="15.23" height="15.23"/>
  <rect class="uuid-057500b2-632a-43d1-a6a5-071a5a242fb3" x="1915" y="1236.73" width="15.23" height="15.23"/>
  <rect class="uuid-057500b2-632a-43d1-a6a5-071a5a242fb3" x="1899.77" y="1236.73" width="15.23" height="15.23"/>
  <rect class="uuid-057500b2-632a-43d1-a6a5-071a5a242fb3" x="1884.54" y="1236.73" width="15.23" height="15.23"/>
  <rect class="uuid-057500b2-632a-43d1-a6a5-071a5a242fb3" x="1884.54" y="1221.73" width="15.23" height="15.23"/>
  <rect class="uuid-057500b2-632a-43d1-a6a5-071a5a242fb3" x="2006.13" y="1221.5" width="15.23" height="15.23"/>
  <rect class="uuid-057500b2-632a-43d1-a6a5-071a5a242fb3" x="2021.13" y="1221.5" width="15.23" height="15.23"/>
  <rect class="uuid-057500b2-632a-43d1-a6a5-071a5a242fb3" x="1990.9" y="1221.5" width="15.23" height="15.23"/>
  <rect class="uuid-057500b2-632a-43d1-a6a5-071a5a242fb3" x="1975.68" y="1221.5" width="15.23" height="15.23"/>
  <rect class="uuid-057500b2-632a-43d1-a6a5-071a5a242fb3" x="1945.45" y="1221.5" width="15.23" height="15.23"/>
  <rect class="uuid-057500b2-632a-43d1-a6a5-071a5a242fb3" x="1930.22" y="1221.5" width="15.23" height="15.23"/>
  <rect class="uuid-057500b2-632a-43d1-a6a5-071a5a242fb3" x="1915" y="1221.5" width="15.23" height="15.23"/>
  <rect class="uuid-057500b2-632a-43d1-a6a5-071a5a242fb3" x="1899.77" y="1221.5" width="15.23" height="15.23"/>
  <rect class="uuid-057500b2-632a-43d1-a6a5-071a5a242fb3" x="2006.13" y="1207.5" width="15.23" height="15.23"/>
  <rect class="uuid-057500b2-632a-43d1-a6a5-071a5a242fb3" x="2021.13" y="1207.5" width="15.23" height="15.23"/>
  <rect class="uuid-057500b2-632a-43d1-a6a5-071a5a242fb3" x="1990.9" y="1207.5" width="15.23" height="15.23"/>
  <rect class="uuid-057500b2-632a-43d1-a6a5-071a5a242fb3" x="1975.68" y="1207.5" width="15.23" height="15.23"/>
  <rect class="uuid-057500b2-632a-43d1-a6a5-071a5a242fb3" x="1945.45" y="1207.5" width="15.23" height="15.23"/>
  <rect class="uuid-057500b2-632a-43d1-a6a5-071a5a242fb3" x="1930.22" y="1207.5" width="15.23" height="15.23"/>
  <rect class="uuid-057500b2-632a-43d1-a6a5-071a5a242fb3" x="1915" y="1207.5" width="15.23" height="15.23"/>
  <rect class="uuid-057500b2-632a-43d1-a6a5-071a5a242fb3" x="1899.77" y="1207.5" width="15.23" height="15.23"/>
  <rect class="uuid-487bed12-d14c-4290-8530-19017a8ae15e" x="2036.58" y="1495.91" width="15.23" height="15.23"/>
  <rect class="uuid-487bed12-d14c-4290-8530-19017a8ae15e" x="2021.36" y="1495.91" width="15.23" height="15.23"/>
  <rect class="uuid-487bed12-d14c-4290-8530-19017a8ae15e" x="2006.13" y="1495.91" width="15.23" height="15.23"/>
  <rect class="uuid-487bed12-d14c-4290-8530-19017a8ae15e" x="1990.9" y="1495.91" width="15.23" height="15.23"/>
  <rect class="uuid-487bed12-d14c-4290-8530-19017a8ae15e" x="1975.68" y="1495.91" width="15.23" height="15.23"/>
  <rect class="uuid-487bed12-d14c-4290-8530-19017a8ae15e" x="1945.45" y="1495.91" width="15.23" height="15.23"/>
  <rect class="uuid-487bed12-d14c-4290-8530-19017a8ae15e" x="1930.22" y="1495.91" width="15.23" height="15.23"/>
  <rect class="uuid-487bed12-d14c-4290-8530-19017a8ae15e" x="1915" y="1495.91" width="15.23" height="15.23"/>
  <rect class="uuid-487bed12-d14c-4290-8530-19017a8ae15e" x="1899.77" y="1495.91" width="15.23" height="15.23"/>
  <rect class="uuid-057500b2-632a-43d1-a6a5-071a5a242fb3" x="1884.54" y="1495.91" width="15.23" height="15.23"/>
  <rect class="uuid-057500b2-632a-43d1-a6a5-071a5a242fb3" x="2036.58" y="1480.69" width="15.23" height="15.23"/>
  <rect class="uuid-057500b2-632a-43d1-a6a5-071a5a242fb3" x="2021.36" y="1480.69" width="15.23" height="15.23"/>
  <rect class="uuid-487bed12-d14c-4290-8530-19017a8ae15e" x="2006.13" y="1480.69" width="15.23" height="15.23"/>
  <rect class="uuid-487bed12-d14c-4290-8530-19017a8ae15e" x="1990.9" y="1480.69" width="15.23" height="15.23"/>
  <rect class="uuid-487bed12-d14c-4290-8530-19017a8ae15e" x="1975.68" y="1480.69" width="15.23" height="15.23"/>
  <rect class="uuid-487bed12-d14c-4290-8530-19017a8ae15e" x="1945.45" y="1480.69" width="15.23" height="15.23"/>
  <rect class="uuid-487bed12-d14c-4290-8530-19017a8ae15e" x="1930.22" y="1480.69" width="15.23" height="15.23"/>
  <rect class="uuid-057500b2-632a-43d1-a6a5-071a5a242fb3" x="1915" y="1480.69" width="15.23" height="15.23"/>
  <rect class="uuid-057500b2-632a-43d1-a6a5-071a5a242fb3" x="1899.77" y="1480.69" width="15.23" height="15.23"/>
  <rect class="uuid-057500b2-632a-43d1-a6a5-071a5a242fb3" x="1884.54" y="1480.69" width="15.23" height="15.23"/>
  <rect class="uuid-057500b2-632a-43d1-a6a5-071a5a242fb3" x="2036.58" y="1465.46" width="15.23" height="15.23"/>
  <rect class="uuid-057500b2-632a-43d1-a6a5-071a5a242fb3" x="2021.36" y="1465.46" width="15.23" height="15.23"/>
  <rect class="uuid-432e17b5-469f-4d9c-bdcb-7c0571771e91" x="2006.13" y="1465.46" width="15.23" height="15.23"/>
  <rect class="uuid-432e17b5-469f-4d9c-bdcb-7c0571771e91" x="1990.9" y="1465.46" width="15.23" height="15.23"/>
  <rect class="uuid-432e17b5-469f-4d9c-bdcb-7c0571771e91" x="1975.68" y="1465.46" width="15.23" height="15.23"/>
  <rect class="uuid-432e17b5-469f-4d9c-bdcb-7c0571771e91" x="1945.45" y="1465.46" width="15.23" height="15.23"/>
  <rect class="uuid-432e17b5-469f-4d9c-bdcb-7c0571771e91" x="1930.22" y="1465.46" width="15.23" height="15.23"/>
  <rect class="uuid-057500b2-632a-43d1-a6a5-071a5a242fb3" x="1915" y="1465.46" width="15.23" height="15.23"/>
  <rect class="uuid-057500b2-632a-43d1-a6a5-071a5a242fb3" x="1899.77" y="1465.46" width="15.23" height="15.23"/>
  <rect class="uuid-057500b2-632a-43d1-a6a5-071a5a242fb3" x="1884.54" y="1465.46" width="15.23" height="15.23"/>
  <rect class="uuid-057500b2-632a-43d1-a6a5-071a5a242fb3" x="2036.58" y="1450.23" width="15.23" height="15.23"/>
  <rect class="uuid-057500b2-632a-43d1-a6a5-071a5a242fb3" x="2021.36" y="1450.23" width="15.23" height="15.23"/>
  <rect class="uuid-487bed12-d14c-4290-8530-19017a8ae15e" x="2006.13" y="1450.23" width="15.23" height="15.23"/>
  <rect class="uuid-487bed12-d14c-4290-8530-19017a8ae15e" x="1990.9" y="1450.23" width="15.23" height="15.23"/>
  <rect class="uuid-487bed12-d14c-4290-8530-19017a8ae15e" x="1975.68" y="1450.23" width="15.23" height="15.23"/>
  <rect class="uuid-487bed12-d14c-4290-8530-19017a8ae15e" x="1945.45" y="1450.23" width="15.23" height="15.23"/>
  <rect class="uuid-487bed12-d14c-4290-8530-19017a8ae15e" x="1930.22" y="1450.23" width="15.23" height="15.23"/>
  <rect class="uuid-487bed12-d14c-4290-8530-19017a8ae15e" x="1915" y="1450.23" width="15.23" height="15.23"/>
  <rect class="uuid-057500b2-632a-43d1-a6a5-071a5a242fb3" x="1899.77" y="1450.23" width="15.23" height="15.23"/>
  <rect class="uuid-057500b2-632a-43d1-a6a5-071a5a242fb3" x="1884.54" y="1450.23" width="15.23" height="15.23"/>
  <rect class="uuid-057500b2-632a-43d1-a6a5-071a5a242fb3" x="2036.58" y="1435.01" width="15.23" height="15.23"/>
  <rect class="uuid-487bed12-d14c-4290-8530-19017a8ae15e" x="2021.36" y="1435.01" width="15.23" height="15.23"/>
  <rect class="uuid-487bed12-d14c-4290-8530-19017a8ae15e" x="2006.13" y="1435.01" width="15.23" height="15.23"/>
  <rect class="uuid-487bed12-d14c-4290-8530-19017a8ae15e" x="1990.9" y="1435.01" width="15.23" height="15.23"/>
  <rect class="uuid-487bed12-d14c-4290-8530-19017a8ae15e" x="1975.68" y="1435.01" width="15.23" height="15.23"/>
  <rect class="uuid-487bed12-d14c-4290-8530-19017a8ae15e" x="1945.45" y="1435.01" width="15.23" height="15.23"/>
  <rect class="uuid-487bed12-d14c-4290-8530-19017a8ae15e" x="1930.22" y="1435.01" width="15.23" height="15.23"/>
  <rect class="uuid-487bed12-d14c-4290-8530-19017a8ae15e" x="1915" y="1435.01" width="15.23" height="15.23"/>
  <rect class="uuid-487bed12-d14c-4290-8530-19017a8ae15e" x="1899.77" y="1435.01" width="15.23" height="15.23"/>
  <rect class="uuid-057500b2-632a-43d1-a6a5-071a5a242fb3" x="1884.54" y="1435.01" width="15.23" height="15.23"/>
  <rect class="uuid-487bed12-d14c-4290-8530-19017a8ae15e" x="2036.58" y="1419.78" width="15.23" height="15.23"/>
  <rect class="uuid-487bed12-d14c-4290-8530-19017a8ae15e" x="2021.36" y="1419.78" width="15.23" height="15.23"/>
  <rect class="uuid-487bed12-d14c-4290-8530-19017a8ae15e" x="2006.13" y="1419.78" width="15.23" height="15.23"/>
  <rect class="uuid-487bed12-d14c-4290-8530-19017a8ae15e" x="1990.9" y="1419.78" width="15.23" height="15.23"/>
  <rect class="uuid-057500b2-632a-43d1-a6a5-071a5a242fb3" x="1975.68" y="1419.78" width="15.23" height="15.23"/>
  <rect class="uuid-057500b2-632a-43d1-a6a5-071a5a242fb3" x="1945.45" y="1419.78" width="15.23" height="15.23"/>
  <rect class="uuid-487bed12-d14c-4290-8530-19017a8ae15e" x="1930.22" y="1419.78" width="15.23" height="15.23"/>
  <rect class="uuid-487bed12-d14c-4290-8530-19017a8ae15e" x="1915" y="1419.78" width="15.23" height="15.23"/>
  <rect class="uuid-487bed12-d14c-4290-8530-19017a8ae15e" x="1899.77" y="1419.78" width="15.23" height="15.23"/>
  <rect class="uuid-487bed12-d14c-4290-8530-19017a8ae15e" x="1884.54" y="1419.78" width="15.23" height="15.23"/>
  <rect class="uuid-487bed12-d14c-4290-8530-19017a8ae15e" x="2036.58" y="1404.55" width="15.23" height="15.23"/>
  <rect class="uuid-487bed12-d14c-4290-8530-19017a8ae15e" x="2021.36" y="1404.55" width="15.23" height="15.23"/>
  <rect class="uuid-487bed12-d14c-4290-8530-19017a8ae15e" x="2006.13" y="1404.55" width="15.23" height="15.23"/>
  <rect class="uuid-487bed12-d14c-4290-8530-19017a8ae15e" x="1990.9" y="1404.55" width="15.23" height="15.23"/>
  <rect class="uuid-487bed12-d14c-4290-8530-19017a8ae15e" x="1975.68" y="1404.55" width="15.23" height="15.23"/>
  <rect class="uuid-487bed12-d14c-4290-8530-19017a8ae15e" x="1945.45" y="1404.55" width="15.23" height="15.23"/>
  <rect class="uuid-487bed12-d14c-4290-8530-19017a8ae15e" x="1930.22" y="1404.55" width="15.23" height="15.23"/>
  <rect class="uuid-487bed12-d14c-4290-8530-19017a8ae15e" x="1915" y="1404.55" width="15.23" height="15.23"/>
  <rect class="uuid-487bed12-d14c-4290-8530-19017a8ae15e" x="1899.77" y="1404.55" width="15.23" height="15.23"/>
  <rect class="uuid-487bed12-d14c-4290-8530-19017a8ae15e" x="1884.54" y="1404.55" width="15.23" height="15.23"/>
  <rect class="uuid-487bed12-d14c-4290-8530-19017a8ae15e" x="2036.58" y="1389.32" width="15.23" height="15.23"/>
  <rect class="uuid-432e17b5-469f-4d9c-bdcb-7c0571771e91" x="2021.36" y="1389.32" width="15.23" height="15.23"/>
  <rect class="uuid-487bed12-d14c-4290-8530-19017a8ae15e" x="2006.13" y="1389.32" width="15.23" height="15.23"/>
  <rect class="uuid-487bed12-d14c-4290-8530-19017a8ae15e" x="1990.9" y="1389.32" width="15.23" height="15.23"/>
  <rect class="uuid-487bed12-d14c-4290-8530-19017a8ae15e" x="1975.68" y="1389.32" width="15.23" height="15.23"/>
  <rect class="uuid-487bed12-d14c-4290-8530-19017a8ae15e" x="1945.45" y="1389.32" width="15.23" height="15.23"/>
  <rect class="uuid-487bed12-d14c-4290-8530-19017a8ae15e" x="1930.22" y="1389.32" width="15.23" height="15.23"/>
  <rect class="uuid-487bed12-d14c-4290-8530-19017a8ae15e" x="1915" y="1389.32" width="15.23" height="15.23"/>
  <rect class="uuid-432e17b5-469f-4d9c-bdcb-7c0571771e91" x="1899.77" y="1389.32" width="15.23" height="15.23"/>
  <rect class="uuid-487bed12-d14c-4290-8530-19017a8ae15e" x="1884.54" y="1389.32" width="15.23" height="15.23"/>
  <rect class="uuid-487bed12-d14c-4290-8530-19017a8ae15e" x="2036.58" y="1374.1" width="15.23" height="15.23"/>
  <rect class="uuid-487bed12-d14c-4290-8530-19017a8ae15e" x="2021.36" y="1374.1" width="15.23" height="15.23"/>
  <rect class="uuid-487bed12-d14c-4290-8530-19017a8ae15e" x="2006.13" y="1374.1" width="15.23" height="15.23"/>
  <rect class="uuid-487bed12-d14c-4290-8530-19017a8ae15e" x="1990.9" y="1374.1" width="15.23" height="15.23"/>
  <rect class="uuid-487bed12-d14c-4290-8530-19017a8ae15e" x="1975.68" y="1374.1" width="15.23" height="15.23"/>
  <rect class="uuid-487bed12-d14c-4290-8530-19017a8ae15e" x="1945.45" y="1374.1" width="15.23" height="15.23"/>
  <rect class="uuid-487bed12-d14c-4290-8530-19017a8ae15e" x="1960.45" y="1358.54" width="15.23" height="15.56"/>
  <rect class="uuid-487bed12-d14c-4290-8530-19017a8ae15e" x="1960.45" y="1343.31" width="15.23" height="15.23"/>
  <rect class="uuid-487bed12-d14c-4290-8530-19017a8ae15e" x="1960.45" y="1328.09" width="15.23" height="15.23"/>
  <rect class="uuid-487bed12-d14c-4290-8530-19017a8ae15e" x="1960.45" y="1312.86" width="15.23" height="15.23"/>
  <rect class="uuid-487bed12-d14c-4290-8530-19017a8ae15e" x="1960.45" y="1297.63" width="15.23" height="15.23"/>
  <rect class="uuid-487bed12-d14c-4290-8530-19017a8ae15e" x="1960.45" y="1282.41" width="15.23" height="15.23"/>
  <rect class="uuid-057500b2-632a-43d1-a6a5-071a5a242fb3" x="1960.45" y="1267.18" width="15.23" height="15.23"/>
  <rect class="uuid-057500b2-632a-43d1-a6a5-071a5a242fb3" x="1960.45" y="1251.95" width="15.23" height="15.23"/>
  <rect class="uuid-057500b2-632a-43d1-a6a5-071a5a242fb3" x="1960.45" y="1236.73" width="15.23" height="15.23"/>
  <rect class="uuid-057500b2-632a-43d1-a6a5-071a5a242fb3" x="1960.45" y="1221.5" width="15.23" height="15.23"/>
  <rect class="uuid-057500b2-632a-43d1-a6a5-071a5a242fb3" x="1960.45" y="1207.5" width="15.23" height="15.23"/>
  <rect class="uuid-487bed12-d14c-4290-8530-19017a8ae15e" x="1960.45" y="1495.91" width="15.23" height="15.23"/>
  <rect class="uuid-487bed12-d14c-4290-8530-19017a8ae15e" x="1960.45" y="1480.69" width="15.23" height="15.23"/>
  <rect class="uuid-432e17b5-469f-4d9c-bdcb-7c0571771e91" x="1960.45" y="1465.46" width="15.23" height="15.23"/>
  <rect class="uuid-487bed12-d14c-4290-8530-19017a8ae15e" x="1960.45" y="1450.23" width="15.23" height="15.23"/>
  <rect class="uuid-487bed12-d14c-4290-8530-19017a8ae15e" x="1960.45" y="1435.01" width="15.23" height="15.23"/>
  <rect class="uuid-057500b2-632a-43d1-a6a5-071a5a242fb3" x="1960.45" y="1419.78" width="15.23" height="15.23"/>
  <rect class="uuid-487bed12-d14c-4290-8530-19017a8ae15e" x="1960.45" y="1404.55" width="15.23" height="15.23"/>
  <rect class="uuid-487bed12-d14c-4290-8530-19017a8ae15e" x="1960.45" y="1389.32" width="15.23" height="15.23"/>
  <rect class="uuid-432e17b5-469f-4d9c-bdcb-7c0571771e91" x="1960.45" y="1374.1" width="15.23" height="15.23"/>
  <rect class="uuid-487bed12-d14c-4290-8530-19017a8ae15e" x="1930.22" y="1374.1" width="15.23" height="15.23"/>
  <rect class="uuid-487bed12-d14c-4290-8530-19017a8ae15e" x="1915" y="1374.1" width="15.23" height="15.23"/>
  <rect class="uuid-487bed12-d14c-4290-8530-19017a8ae15e" x="1899.77" y="1373.1" width="15.23" height="16.23"/>
  <rect class="uuid-487bed12-d14c-4290-8530-19017a8ae15e" x="1884.45" y="1374.1" width="15.32" height="15.23"/>
  <rect class="uuid-057500b2-632a-43d1-a6a5-071a5a242fb3" x="2082.6" y="1495.91" width="15.23" height="15.23"/>
  <rect class="uuid-057500b2-632a-43d1-a6a5-071a5a242fb3" x="2067.37" y="1495.91" width="15.23" height="15.23"/>
  <rect class="uuid-057500b2-632a-43d1-a6a5-071a5a242fb3" x="2052.14" y="1495.91" width="15.23" height="15.23"/>
  <rect class="uuid-057500b2-632a-43d1-a6a5-071a5a242fb3" x="2082.6" y="1480.69" width="15.23" height="15.23"/>
  <rect class="uuid-057500b2-632a-43d1-a6a5-071a5a242fb3" x="2067.37" y="1480.69" width="15.23" height="15.23"/>
  <rect class="uuid-057500b2-632a-43d1-a6a5-071a5a242fb3" x="2052.14" y="1480.69" width="15.23" height="15.23"/>
  <rect class="uuid-057500b2-632a-43d1-a6a5-071a5a242fb3" x="2082.6" y="1465.46" width="15.23" height="15.23"/>
  <rect class="uuid-057500b2-632a-43d1-a6a5-071a5a242fb3" x="2067.37" y="1465.46" width="15.23" height="15.23"/>
  <rect class="uuid-057500b2-632a-43d1-a6a5-071a5a242fb3" x="2052.14" y="1465.46" width="15.23" height="15.23"/>
  <rect class="uuid-057500b2-632a-43d1-a6a5-071a5a242fb3" x="2082.6" y="1450.23" width="15.23" height="15.23"/>
  <rect class="uuid-057500b2-632a-43d1-a6a5-071a5a242fb3" x="2067.37" y="1450.23" width="15.23" height="15.23"/>
  <rect class="uuid-057500b2-632a-43d1-a6a5-071a5a242fb3" x="2052.14" y="1450.23" width="15.23" height="15.23"/>
  <rect class="uuid-057500b2-632a-43d1-a6a5-071a5a242fb3" x="2082.6" y="1435.01" width="15.23" height="15.23"/>
  <rect class="uuid-057500b2-632a-43d1-a6a5-071a5a242fb3" x="2067.37" y="1435.01" width="15.23" height="15.23"/>
  <rect class="uuid-057500b2-632a-43d1-a6a5-071a5a242fb3" x="2052.14" y="1435.01" width="15.23" height="15.23"/>
  <rect class="uuid-057500b2-632a-43d1-a6a5-071a5a242fb3" x="2082.6" y="1419.78" width="15.23" height="15.23"/>
  <rect class="uuid-057500b2-632a-43d1-a6a5-071a5a242fb3" x="2067.37" y="1419.78" width="15.23" height="15.23"/>
  <rect class="uuid-057500b2-632a-43d1-a6a5-071a5a242fb3" x="2052.14" y="1419.78" width="15.23" height="15.23"/>
  <rect class="uuid-057500b2-632a-43d1-a6a5-071a5a242fb3" x="2082.6" y="1404.55" width="15.23" height="15.23"/>
  <rect class="uuid-057500b2-632a-43d1-a6a5-071a5a242fb3" x="2067.37" y="1404.55" width="15.23" height="15.23"/>
  <rect class="uuid-057500b2-632a-43d1-a6a5-071a5a242fb3" x="2052.14" y="1404.55" width="15.23" height="15.23"/>
  <rect class="uuid-057500b2-632a-43d1-a6a5-071a5a242fb3" x="2082.6" y="1389.32" width="15.23" height="15.23"/>
  <rect class="uuid-057500b2-632a-43d1-a6a5-071a5a242fb3" x="2067.37" y="1389.32" width="15.23" height="15.23"/>
  <rect class="uuid-057500b2-632a-43d1-a6a5-071a5a242fb3" x="2052.14" y="1389.32" width="15.23" height="15.23"/>
  <rect class="uuid-057500b2-632a-43d1-a6a5-071a5a242fb3" x="2082.58" y="1374.11" width="15.23" height="15.23" transform="translate(-1.95 2.96) rotate(-.08)"/>
  <rect class="uuid-057500b2-632a-43d1-a6a5-071a5a242fb3" x="2067.37" y="1374.1" width="15.23" height="15.23"/>
  <rect class="uuid-057500b2-632a-43d1-a6a5-071a5a242fb3" x="2052.14" y="1374.1" width="15.23" height="15.23"/>
  <rect class="uuid-057500b2-632a-43d1-a6a5-071a5a242fb3" x="2082.6" y="1358.54" width="15.23" height="15.23"/>
  <rect class="uuid-057500b2-632a-43d1-a6a5-071a5a242fb3" x="2067.37" y="1358.54" width="15.23" height="15.23"/>
  <rect class="uuid-057500b2-632a-43d1-a6a5-071a5a242fb3" x="2052.14" y="1358.54" width="15.23" height="15.23"/>
  <rect class="uuid-057500b2-632a-43d1-a6a5-071a5a242fb3" x="2082.6" y="1343.31" width="15.23" height="15.23"/>
  <rect class="uuid-057500b2-632a-43d1-a6a5-071a5a242fb3" x="2067.37" y="1343.31" width="15.23" height="15.23"/>
  <rect class="uuid-057500b2-632a-43d1-a6a5-071a5a242fb3" x="2052.14" y="1343.31" width="15.23" height="15.23"/>
  <rect class="uuid-057500b2-632a-43d1-a6a5-071a5a242fb3" x="2082.6" y="1328.09" width="15.23" height="15.23"/>
  <rect class="uuid-057500b2-632a-43d1-a6a5-071a5a242fb3" x="2067.37" y="1328.09" width="15.23" height="15.23"/>
  <rect class="uuid-057500b2-632a-43d1-a6a5-071a5a242fb3" x="2052.14" y="1328.09" width="15.23" height="15.23"/>
  <rect class="uuid-057500b2-632a-43d1-a6a5-071a5a242fb3" x="2082.6" y="1312.86" width="15.23" height="15.23"/>
  <rect class="uuid-057500b2-632a-43d1-a6a5-071a5a242fb3" x="2067.37" y="1312.86" width="15.23" height="15.23"/>
  <rect class="uuid-057500b2-632a-43d1-a6a5-071a5a242fb3" x="2052.14" y="1312.86" width="15.23" height="15.23"/>
  <rect class="uuid-057500b2-632a-43d1-a6a5-071a5a242fb3" x="2082.6" y="1297.63" width="15.23" height="15.23"/>
  <rect class="uuid-057500b2-632a-43d1-a6a5-071a5a242fb3" x="2067.37" y="1297.63" width="15.23" height="15.23"/>
  <rect class="uuid-057500b2-632a-43d1-a6a5-071a5a242fb3" x="2052.14" y="1297.63" width="15.23" height="15.23"/>
  <rect class="uuid-057500b2-632a-43d1-a6a5-071a5a242fb3" x="2082.6" y="1282.41" width="15.23" height="15.23"/>
  <rect class="uuid-057500b2-632a-43d1-a6a5-071a5a242fb3" x="2082.6" y="1268.41" width="15.23" height="15.23"/>
  <rect class="uuid-057500b2-632a-43d1-a6a5-071a5a242fb3" x="2096.6" y="1495.91" width="15.23" height="15.23"/>
  <rect class="uuid-057500b2-632a-43d1-a6a5-071a5a242fb3" x="2096.6" y="1480.69" width="15.23" height="15.23"/>
  <rect class="uuid-057500b2-632a-43d1-a6a5-071a5a242fb3" x="2096.6" y="1465.46" width="15.23" height="15.23"/>
  <rect class="uuid-057500b2-632a-43d1-a6a5-071a5a242fb3" x="2096.6" y="1450.23" width="15.23" height="15.23"/>
  <rect class="uuid-057500b2-632a-43d1-a6a5-071a5a242fb3" x="2096.6" y="1435.01" width="15.23" height="15.23"/>
  <rect class="uuid-057500b2-632a-43d1-a6a5-071a5a242fb3" x="2096.6" y="1419.78" width="15.23" height="15.23"/>
  <rect class="uuid-057500b2-632a-43d1-a6a5-071a5a242fb3" x="2096.6" y="1404.55" width="15.23" height="15.23"/>
  <rect class="uuid-057500b2-632a-43d1-a6a5-071a5a242fb3" x="2096.6" y="1389.32" width="15.23" height="15.23"/>
  <rect class="uuid-057500b2-632a-43d1-a6a5-071a5a242fb3" x="2096.58" y="1374.11" width="15.23" height="15.23" transform="translate(-1.95 2.98) rotate(-.08)"/>
  <rect class="uuid-057500b2-632a-43d1-a6a5-071a5a242fb3" x="2096.6" y="1358.54" width="15.23" height="15.23"/>
  <rect class="uuid-057500b2-632a-43d1-a6a5-071a5a242fb3" x="2096.6" y="1343.31" width="15.23" height="15.23"/>
  <rect class="uuid-057500b2-632a-43d1-a6a5-071a5a242fb3" x="2096.6" y="1328.09" width="15.23" height="15.23"/>
  <rect class="uuid-057500b2-632a-43d1-a6a5-071a5a242fb3" x="2096.6" y="1312.86" width="15.23" height="15.23"/>
  <rect class="uuid-057500b2-632a-43d1-a6a5-071a5a242fb3" x="2067.37" y="1282.41" width="15.23" height="15.23"/>
  <rect class="uuid-057500b2-632a-43d1-a6a5-071a5a242fb3" x="2052.14" y="1282.41" width="15.23" height="15.23"/>
  <rect class="uuid-057500b2-632a-43d1-a6a5-071a5a242fb3" x="2067.37" y="1267.18" width="15.23" height="15.23"/>
  <rect class="uuid-057500b2-632a-43d1-a6a5-071a5a242fb3" x="2067.37" y="1253.18" width="15.23" height="15.23"/>
  <rect class="uuid-057500b2-632a-43d1-a6a5-071a5a242fb3" x="2052.14" y="1267.18" width="15.23" height="15.23"/>
  <rect class="uuid-057500b2-632a-43d1-a6a5-071a5a242fb3" x="2052.14" y="1251.95" width="15.23" height="15.23"/>
  <rect class="uuid-057500b2-632a-43d1-a6a5-071a5a242fb3" x="2052.14" y="1236.95" width="15.23" height="15.23"/>
  <rect class="uuid-057500b2-632a-43d1-a6a5-071a5a242fb3" x="1868.98" y="1495.58" width="15.23" height="15.23"/>
  <rect class="uuid-057500b2-632a-43d1-a6a5-071a5a242fb3" x="1853.76" y="1495.58" width="15.23" height="15.23"/>
  <rect class="uuid-057500b2-632a-43d1-a6a5-071a5a242fb3" x="1838.53" y="1495.58" width="15.23" height="15.23"/>
  <rect class="uuid-057500b2-632a-43d1-a6a5-071a5a242fb3" x="1868.98" y="1480.36" width="15.23" height="15.23"/>
  <rect class="uuid-057500b2-632a-43d1-a6a5-071a5a242fb3" x="1853.76" y="1480.36" width="15.23" height="15.23"/>
  <rect class="uuid-057500b2-632a-43d1-a6a5-071a5a242fb3" x="1838.53" y="1480.36" width="15.23" height="15.23"/>
  <rect class="uuid-057500b2-632a-43d1-a6a5-071a5a242fb3" x="1868.98" y="1465.13" width="15.23" height="15.23"/>
  <rect class="uuid-057500b2-632a-43d1-a6a5-071a5a242fb3" x="1853.76" y="1465.13" width="15.23" height="15.23"/>
  <rect class="uuid-057500b2-632a-43d1-a6a5-071a5a242fb3" x="1838.53" y="1465.13" width="15.23" height="15.23"/>
  <rect class="uuid-057500b2-632a-43d1-a6a5-071a5a242fb3" x="1868.98" y="1449.9" width="15.23" height="15.23"/>
  <rect class="uuid-057500b2-632a-43d1-a6a5-071a5a242fb3" x="1853.76" y="1449.9" width="15.23" height="15.23"/>
  <rect class="uuid-057500b2-632a-43d1-a6a5-071a5a242fb3" x="1838.53" y="1449.9" width="15.23" height="15.23"/>
  <rect class="uuid-057500b2-632a-43d1-a6a5-071a5a242fb3" x="1868.98" y="1434.68" width="15.23" height="15.23"/>
  <rect class="uuid-057500b2-632a-43d1-a6a5-071a5a242fb3" x="1853.76" y="1434.68" width="15.23" height="15.23"/>
  <rect class="uuid-057500b2-632a-43d1-a6a5-071a5a242fb3" x="1838.53" y="1434.68" width="15.23" height="15.23"/>
  <rect class="uuid-057500b2-632a-43d1-a6a5-071a5a242fb3" x="1868.98" y="1419.45" width="15.23" height="15.23"/>
  <rect class="uuid-057500b2-632a-43d1-a6a5-071a5a242fb3" x="1853.76" y="1419.45" width="15.23" height="15.23"/>
  <rect class="uuid-057500b2-632a-43d1-a6a5-071a5a242fb3" x="1838.53" y="1419.45" width="15.23" height="15.23"/>
  <rect class="uuid-057500b2-632a-43d1-a6a5-071a5a242fb3" x="1868.98" y="1404.22" width="15.23" height="15.23"/>
  <rect class="uuid-057500b2-632a-43d1-a6a5-071a5a242fb3" x="1853.76" y="1404.22" width="15.23" height="15.23"/>
  <rect class="uuid-057500b2-632a-43d1-a6a5-071a5a242fb3" x="1838.53" y="1404.22" width="15.23" height="15.23"/>
  <rect class="uuid-057500b2-632a-43d1-a6a5-071a5a242fb3" x="1868.98" y="1388.99" width="15.23" height="15.23"/>
  <rect class="uuid-057500b2-632a-43d1-a6a5-071a5a242fb3" x="1853.76" y="1388.99" width="15.23" height="15.23"/>
  <rect class="uuid-057500b2-632a-43d1-a6a5-071a5a242fb3" x="1838.53" y="1388.68" width="15.23" height="16.54"/>
  <rect class="uuid-057500b2-632a-43d1-a6a5-071a5a242fb3" x="1823.53" y="1434.36" width="15.23" height="77.13"/>
  <rect class="uuid-057500b2-632a-43d1-a6a5-071a5a242fb3" x="1823.53" y="1419.13" width="15.23" height="15.23"/>
  <rect class="uuid-057500b2-632a-43d1-a6a5-071a5a242fb3" x="1823.53" y="1403.9" width="15.23" height="15.23"/>
  <rect class="uuid-057500b2-632a-43d1-a6a5-071a5a242fb3" x="1823.53" y="1388.68" width="15.23" height="15.23"/>
  <rect class="uuid-057500b2-632a-43d1-a6a5-071a5a242fb3" x="1823.53" y="1373.45" width="15.23" height="15.47"/>
  <rect class="uuid-057500b2-632a-43d1-a6a5-071a5a242fb3" x="1823.53" y="1358.22" width="15.23" height="15.23"/>
  <rect class="uuid-057500b2-632a-43d1-a6a5-071a5a242fb3" x="1823.53" y="1342.99" width="15.23" height="15.23"/>
  <rect class="uuid-057500b2-632a-43d1-a6a5-071a5a242fb3" x="1823.53" y="1327.99" width="15.23" height="15.23"/>
  <rect class="uuid-057500b2-632a-43d1-a6a5-071a5a242fb3" x="1823.53" y="1308.25" width="15.23" height="20.97"/>
  <rect class="uuid-057500b2-632a-43d1-a6a5-071a5a242fb3" x="1868.98" y="1373.77" width="15.23" height="15.23"/>
  <rect class="uuid-057500b2-632a-43d1-a6a5-071a5a242fb3" x="1854.01" y="1373.77" width="14.98" height="15.23"/>
</svg>