<svg width="53" height="53" viewBox="0 0 53 53" fill="none" xmlns="http://www.w3.org/2000/svg">
<path d="M8.83317 44.1666C7.61859 44.1666 6.5792 43.7345 5.715 42.8703C4.85081 42.0061 4.41798 40.966 4.4165 39.7499V13.2499C4.4165 12.0353 4.84934 10.9959 5.715 10.1318C6.58067 9.26756 7.62006 8.83472 8.83317 8.83325H44.1665C45.3811 8.83325 46.4212 9.26608 47.2869 10.1318C48.1525 10.9974 48.5846 12.0368 48.5832 13.2499V39.7499C48.5832 40.9645 48.1511 42.0046 47.2869 42.8703C46.4227 43.736 45.3825 44.1681 44.1665 44.1666H8.83317ZM26.4998 28.7082L8.83317 17.6666V39.7499H44.1665V17.6666L26.4998 28.7082ZM26.4998 24.2916L44.1665 13.2499H8.83317L26.4998 24.2916ZM8.83317 17.6666V13.2499V39.7499V17.6666Z" fill="#FC7DB0"/>
</svg>
