<svg width="18" height="18" viewBox="0 0 18 18" fill="none" xmlns="http://www.w3.org/2000/svg">
<path d="M15.7185 11.4938C15.8715 11.1293 15.4342 10.8188 15.0675 10.9808C14.3343 11.3022 13.5423 11.4677 12.7418 11.4668C9.603 11.4668 7.059 8.97379 7.059 5.89804C7.05868 4.85967 7.35365 3.84261 7.9095 2.96554C8.1225 2.62954 7.86675 2.16454 7.47675 2.26354C4.47 3.03079 2.25 5.70979 2.25 8.89654C2.25 12.6818 5.38125 15.75 9.2445 15.75C12.1695 15.75 14.6745 13.9913 15.7185 11.4938Z" fill="black"/>
<path d="M11.7084 2.32734C11.3109 2.06184 10.8369 2.53584 11.1016 2.93334L11.5741 3.64209C11.766 3.92939 11.8684 4.26711 11.8684 4.61259C11.8684 4.95807 11.766 5.29579 11.5741 5.58309L11.1016 6.29184C10.8369 6.68934 11.3116 7.16334 11.7091 6.89784L12.4171 6.42534C12.7044 6.23347 13.0422 6.13107 13.3876 6.13107C13.7331 6.13107 14.0708 6.23347 14.3581 6.42534L15.0669 6.89784C15.4644 7.16334 15.9384 6.68934 15.6729 6.29184L15.2004 5.58309C15.0085 5.29579 14.9061 4.95807 14.9061 4.61259C14.9061 4.26711 15.0085 3.92939 15.2004 3.64209L15.6729 2.93334C15.9384 2.53584 15.4644 2.06184 15.0661 2.32734L14.3581 2.79984C14.0708 2.9917 13.7331 3.09411 13.3876 3.09411C13.0422 3.09411 12.7044 2.9917 12.4171 2.79984L11.7084 2.32734Z" fill="black"/>
</svg>
