<svg width="34" height="34" viewBox="0 0 34 34" fill="none" xmlns="http://www.w3.org/2000/svg">
<g clip-path="url(#clip0_48_20)">
<path d="M6.02092 0.425049H27.9791C31.3084 0.425049 34 3.11663 34 6.44597V27.5541C34 30.8835 31.3084 33.5751 27.9791 33.5751H6.02092C2.69158 33.5751 0 30.8835 0 27.5541V6.44597C0 3.11663 2.69158 0.425049 6.02092 0.425049Z" fill="#001E36"/>
<path d="M12.1833 8.85413C11.7583 8.85413 11.3333 8.85413 10.8942 8.86847C10.4549 8.88255 10.044 8.88255 9.66148 8.89689C9.27898 8.91097 8.9249 8.91097 8.5849 8.92505C8.25898 8.93913 8.0324 8.93913 7.79148 8.93913C7.6924 8.93913 7.6499 8.9957 7.6499 9.09505V23.6725C7.6499 23.8 7.70648 23.8569 7.8199 23.8569H10.5683C10.6674 23.8425 10.7383 23.7575 10.724 23.6585V19.111C10.9931 19.111 11.1915 19.111 11.3333 19.125C11.4749 19.1391 11.7015 19.1391 12.0415 19.1391C13.2033 19.1391 14.2658 19.0116 15.229 18.6575C16.1499 18.3175 16.9433 17.7225 17.5099 16.9291C18.0766 16.1358 18.3599 15.13 18.3599 13.9116C18.3599 13.2741 18.2467 12.665 18.0342 12.07C17.8091 11.4639 17.4563 10.9131 16.9999 10.455C16.4612 9.93167 15.8127 9.53479 15.1015 9.2932C14.3081 8.9957 13.3449 8.85413 12.1833 8.85413ZM12.4994 11.6445C13.0041 11.6541 13.4955 11.7423 13.954 11.9282C14.3649 12.0841 14.7049 12.3675 14.9458 12.7357C15.1718 13.1167 15.2848 13.5541 15.2717 13.9969C15.2717 14.62 15.1299 15.1019 14.8324 15.456C14.5206 15.81 14.124 16.0794 13.6708 16.2069C13.1465 16.3769 12.594 16.4616 12.0415 16.4616H11.2906C11.1206 16.4616 10.9367 16.4475 10.7383 16.4335V11.6735C10.8374 11.6591 11.0358 11.645 11.3192 11.6594C11.5883 11.645 11.914 11.645 12.2824 11.645C12.355 11.6433 12.4273 11.6431 12.4994 11.6445ZM24.3808 12.3678C23.3749 12.3678 22.539 12.5235 21.8733 12.8635C21.2642 13.1469 20.7399 13.6 20.3858 14.1666C20.0742 14.691 19.904 15.2716 19.904 15.881C19.8919 16.3821 20.0038 16.8785 20.2299 17.326C20.4949 17.8024 20.8627 18.2138 21.3067 18.53C21.9299 18.9563 22.6062 19.2992 23.3183 19.55C24.0124 19.8191 24.4799 20.0316 24.7067 20.2157C24.9333 20.4 25.0467 20.5841 25.0467 20.7825C25.0467 21.0375 24.8908 21.2785 24.6642 21.3775C24.4092 21.505 24.0267 21.576 23.4883 21.576C22.9217 21.576 22.3549 21.505 21.8165 21.3635C21.1983 21.2254 20.6055 20.9912 20.0599 20.6694C20.0174 20.641 19.9749 20.6269 19.9324 20.6553C19.8899 20.6835 19.8758 20.74 19.8758 20.7825V23.2475C19.8617 23.361 19.9324 23.46 20.0317 23.5166C20.4911 23.7312 20.9771 23.8837 21.4767 23.97C22.1142 24.0975 22.7515 24.1541 23.4031 24.1541C24.4231 24.1541 25.2733 23.9985 25.9674 23.701C26.6049 23.446 27.1574 23.0069 27.554 22.44C27.9254 21.8828 28.1181 21.2256 28.1065 20.556C28.1205 20.0501 28.0086 19.5488 27.7808 19.0969C27.5115 18.615 27.129 18.2185 26.6615 17.921C25.9776 17.4915 25.2453 17.1443 24.4799 16.8866C24.1381 16.7452 23.8025 16.5892 23.474 16.4191C23.2899 16.32 23.1199 16.1925 22.9924 16.0366C22.9074 15.9232 22.8508 15.796 22.8508 15.6685C22.8508 15.541 22.8933 15.3994 22.964 15.286C23.0633 15.1444 23.219 15.045 23.4031 15.0025C23.6724 14.9319 23.9699 14.8891 24.2531 14.9032C24.7915 14.9032 25.3156 14.9741 25.8399 15.0875C26.3217 15.1866 26.7749 15.3425 27.1999 15.5694C27.2565 15.5975 27.3274 15.5975 27.4549 15.5694C27.477 15.553 27.495 15.5316 27.5073 15.5069C27.5196 15.4823 27.526 15.4551 27.5258 15.4275V13.1185C27.5258 13.0616 27.5115 13.005 27.4974 12.9485C27.469 12.8919 27.4124 12.835 27.3558 12.821C26.9651 12.6613 26.5557 12.5518 26.1374 12.495C25.5557 12.4103 24.9687 12.368 24.3808 12.3678Z" fill="#31A8FF"/>
</g>
<defs>
<clipPath id="clip0_48_20">
<rect width="34" height="34" fill="white"/>
</clipPath>
</defs>
</svg>
