<svg width="48" height="48" viewBox="0 0 48 48" fill="none" xmlns="http://www.w3.org/2000/svg">
<path d="M18.08 43.08C20 43.66 21.94 44 24 44C29.3043 44 34.3914 41.8929 38.1421 38.1421C41.8929 34.3914 44 29.3043 44 24C44 21.3736 43.4827 18.7728 42.4776 16.3463C41.4725 13.9198 39.9993 11.715 38.1421 9.85786C36.285 8.00069 34.0802 6.5275 31.6537 5.52241C29.2272 4.51732 26.6264 4 24 4C21.3736 4 18.7728 4.51732 16.3463 5.52241C13.9198 6.5275 11.715 8.00069 9.85786 9.85786C6.10714 13.6086 4 18.6957 4 24C4 32.5 9.34 39.8 16.88 42.68C16.7 41.12 16.52 38.54 16.88 36.76L19.18 26.88C19.18 26.88 18.6 25.72 18.6 23.88C18.6 21.12 20.32 19.06 22.28 19.06C24 19.06 24.8 20.32 24.8 21.94C24.8 23.66 23.66 26.12 23.08 28.48C22.74 30.44 24.12 32.16 26.12 32.16C29.68 32.16 32.44 28.36 32.44 23C32.44 18.2 29 14.92 24.06 14.92C18.42 14.92 15.1 19.12 15.1 23.54C15.1 25.26 15.66 27 16.58 28.14C16.76 28.26 16.76 28.42 16.7 28.72L16.12 30.9C16.12 31.24 15.9 31.36 15.56 31.12C13 30 11.52 26.36 11.52 23.42C11.52 17.1 16 11.36 24.64 11.36C31.52 11.36 36.88 16.3 36.88 22.86C36.88 29.74 32.62 35.26 26.52 35.26C24.58 35.26 22.68 34.22 22 33L20.66 37.74C20.2 39.46 18.94 41.76 18.08 43.14V43.08Z" fill="black"/>
</svg>
